<svg xmlns="http://www.w3.org/2000/svg" viewBox="0 0 24 24" width="24" height="24">
  <defs>
    <linearGradient id="apple-music-gradient" x1="0%" y1="0%" x2="100%" y2="100%">
      <stop offset="0%" style="stop-color:#FA233B;stop-opacity:1" />
      <stop offset="100%" style="stop-color:#FB5C74;stop-opacity:1" />
    </linearGradient>
  </defs>
  <rect width="24" height="24" rx="5" fill="url(#apple-music-gradient)"/>
  <path d="M18.5 8.5v6.882c0 1.345-1.171 2.118-2.346 2.118-1.236 0-2.154-.818-2.154-1.818 0-1.018.891-1.818 2.127-1.818.445 0 .872.09 1.255.245V9.89l-7.382 1.636v6.856c0 1.345-1.172 2.118-2.346 2.118-1.236 0-2.154-.818-2.154-1.818 0-1.018.891-1.818 2.127-1.818.445 0 .872.09 1.255.245v-7.8c0-.563.391-1.054.936-1.163l7.445-1.654c.736-.163 1.237.418 1.237 1.008z" fill="white"/>
</svg>
