<svg xmlns="http://www.w3.org/2000/svg" viewBox="0 0 24 24" fill="#FA243C" width="24" height="24">
  <path d="M12 0C5.373 0 0 5.373 0 12s5.373 12 12 12 12-5.373 12-12S18.627 0 12 0zm0 2c5.514 0 10 4.486 10 10s-4.486 10-10 10S2 17.514 2 12 6.486 2 12 2z"/>
  <path d="M12 4c-4.411 0-8 3.589-8 8s3.589 8 8 8 8-3.589 8-8-3.589-8-8-8zm0 1.5c3.584 0 6.5 2.916 6.5 6.5S15.584 19 12 19 5.5 16.084 5.5 12.5 8.416 5.5 12 5.5z"/>
  <path d="M12 7c-2.757 0-5 2.243-5 5s2.243 5 5 5 5-2.243 5-5-2.243-5-5-5zm0 1.5c1.93 0 3.5 1.57 3.5 3.5S13.93 15.5 12 15.5 8.5 13.93 8.5 12 10.07 8.5 12 8.5z"/>
  <circle cx="12" cy="12" r="2" fill="#FA243C"/>
</svg>

