<svg xmlns="http://www.w3.org/2000/svg" viewBox="0 0 24 24" fill="#1DB954" width="24" height="24">
  <path d="M12 0C5.373 0 0 5.373 0 12s5.373 12 12 12 12-5.373 12-12S18.627 0 12 0zm5.568 17.308c-.224.36-.7.48-1.06.256-2.89-1.766-6.527-2.424-10.79-1.326-.428.11-.86-.17-.97-.6-.11-.428.17-.86.6-.97 4.65-1.19 8.66-.48 11.84 1.52.36.22.48.7.26 1.06zm1.48-3.35c-.28.45-.88.6-1.33.32-3.3-2.01-8.33-2.59-12.23-1.42-.51.15-1.05-.13-1.2-.64-.15-.51.13-1.05.64-1.2 4.47-1.35 9.95-.7 13.7 1.62.45.28.6.88.32 1.33zm.12-3.48C15.24 8.4 8.7 8.16 5.12 9.21c-.61.18-1.25-.15-1.43-.76-.18-.61.15-1.25.76-1.43 4.03-1.22 11.1-.94 15.7 1.68.55.33.73 1.05.4 1.6-.33.55-1.05.73-1.6.4z"/>
</svg>

